<?xml version="1.0" encoding="utf-8"?>
<!-- Generator: Adobe Illustrator 18.1.1, SVG Export Plug-In . SVG Version: 6.00 Build 0)  -->
<svg version="1.1" id="bigplay" xmlns="http://www.w3.org/2000/svg" xmlns:xlink="http://www.w3.org/1999/xlink" x="0px" y="0px"
	 width="100px" height="100px" viewBox="48 -47 100 100" enable-background="new 48 -47 100 100" xml:space="preserve">
<path fill="#999999" d="M54.8-36L54-35.1l-5.1-5.1l0,0L48-41.1l6-5.9l0.9,0.8l-5.1,5.1L54.8-36z"/>
<path fill="#999999" d="M61.1-41.1L56-46.2l0.9-0.8l6,5.9L62-40.2l0,0l-5.1,5.1L56-36L61.1-41.1z"/>
<path fill="#FFFFFF" d="M54.8-23L54-22.1l-5.1-5.1l0,0L48-28.1l6-5.9l0.9,0.8l-5.1,5.1L54.8-23z"/>
<path fill="#FFFFFF" d="M61.1-28.1L56-33.2l0.9-0.8l6,5.9L62-27.2l0,0l-5.1,5.1L56-23L61.1-28.1z"/>
<path fill="#999999" d="M74.5-35C68.7-35,64-41,64-41s4.7-6,10.5-6S85-41,85-41S80.3-35,74.5-35z M74.5-44.5c-1.9,0-3.5,1.6-3.5,3.5
	s1.6,3.5,3.5,3.5S78-39.1,78-41S76.4-44.5,74.5-44.5z M74.5-39c-1.1,0-2-0.9-2-2s0.9-2,2-2s2,0.9,2,2S75.6-39,74.5-39z"/>
<path fill="#FFFFFF" d="M58-7l-2,2l-8-8l8-8l2,2l-6,6L58-7z"/>
<path fill="#FFFFFF" d="M65-13l-6-6l2-2l8,8l-8,8l-2-2L65-13z"/>
</svg>
