<?xml version="1.0" encoding="utf-8"?>
<!-- Generator: Adobe Illustrator 18.1.1, SVG Export Plug-In . SVG Version: 6.00 Build 0)  -->
<svg version="1.1" id="bigplay" xmlns="http://www.w3.org/2000/svg" xmlns:xlink="http://www.w3.org/1999/xlink" x="0px" y="0px"
	 width="100px" height="100px" viewBox="0 100 100 100" enable-background="new 0 100 100 100" xml:space="preserve">
<path fill="#999999" d="M6.9,111.2l-0.8,0.9L1,107l0,0l-0.9-0.9l6-5.9L7,101l-5.1,5.1L6.9,111.2z"/>
<path fill="#999999" d="M13.2,106.1L8.1,101l0.9-0.8l6,5.9l-0.9,0.9l0,0L9,112.1l-0.9-0.9L13.2,106.1z"/>
<path fill="#FFFFFF" d="M6.9,124.2l-0.8,0.9L1,120l0,0l-0.9-0.9l6-5.9L7,114l-5.1,5.1L6.9,124.2z"/>
<path fill="#FFFFFF" d="M13.2,119.1L8.1,114l0.9-0.8l6,5.9l-0.9,0.9l0,0L9,125.1l-0.9-0.9L13.2,119.1z"/>
<path fill="#999999" d="M26.6,112.2c-5.8,0-10.5-6-10.5-6s4.7-6,10.5-6s10.5,6,10.5,6S32.4,112.2,26.6,112.2z M26.6,102.7
	c-1.9,0-3.5,1.6-3.5,3.5s1.6,3.5,3.5,3.5s3.5-1.6,3.5-3.5S28.5,102.7,26.6,102.7z M26.6,108.2c-1.1,0-2-0.9-2-2s0.9-2,2-2s2,0.9,2,2
	S27.7,108.2,26.6,108.2z"/>
<path fill="#FFFFFF" d="M10.1,140.2l-2,2l-8-8l8-8l2,2l-6,6L10.1,140.2z"/>
<path fill="#FFFFFF" d="M17.1,134.2l-6-6l2-2l8,8l-8,8l-2-2L17.1,134.2z"/>
<path fill-rule="evenodd" clip-rule="evenodd" fill="#FFFFFF" d="M13,162.6l-1.6,1.4l-9.8-8.6h0L0,154l11.4-10l1.6,1.4L3.3,154
	L13,162.6z"/>
<path fill-rule="evenodd" clip-rule="evenodd" fill="#FFFFFF" d="M27.8,154l-9.8-8.6l1.6-1.4L31,154l-1.6,1.4h0l-9.8,8.6l-1.6-1.4
	L27.8,154z"/>
<path fill-rule="evenodd" clip-rule="evenodd" fill="#90939E" d="M6,169.5l-0.8,0.6l0,0L0.8,174L0,173.4l4.5-3.9L0,165.6l0.8-0.6
	l4.5,3.9l0,0L6,169.5z"/>
</svg>
