<?xml version="1.0" encoding="utf-8"?>
<!-- Generator: Adobe Illustrator 18.1.1, SVG Export Plug-In . SVG Version: 6.00 Build 0)  -->
<svg version="1.1" id="图层_1" xmlns="http://www.w3.org/2000/svg" xmlns:xlink="http://www.w3.org/1999/xlink" x="0px" y="0px"
	 width="20px" height="110px" viewBox="0 0 20 110" style="enable-background:new 0 0 20 110;" xml:space="preserve">
<style type="text/css">
	.st0{fill:#666666;}
	.st1{fill-rule:evenodd;clip-rule:evenodd;fill:#666666;}
</style>
<path class="st0" d="M5.2,1.6l12.5,7.2c1.7,1,1.7,3.4,0,4.3L5.2,20.4c-1.7,1-3.7-0.2-3.7-2.2l0-14.5C1.5,1.8,3.6,0.6,5.2,1.6z"/>
<path class="st0" d="M15,39H3c-1.1,0-2-0.9-2-2V25c0-1.1,0.9-2,2-2h12c1.1,0,2,0.9,2,2v12C17,38.1,16.1,39,15,39z"/>
<path class="st1" d="M18.2,48c0,0.6-0.5,1-1,1H12c-0.6,0-1-0.5-1-1v-5.2c0-0.6,0.5-1,1-1l2,2l2.8-2.8l2.2,2.2L16.2,46L18.2,48z
	 M8,58.2l-2-2L3.2,59L1,56.8L3.8,54l-2-2c0-0.6,0.5-1,1-1H8c0.6,0,1,0.5,1,1v5.2C9,57.7,8.5,58.2,8,58.2z M8,49H2.8
	c-0.6,0-1-0.5-1-1l2-2L1,43.2L3.2,41L6,43.8l2-2c0.6,0,1,0.5,1,1V48C9,48.5,8.5,49,8,49z M12,51h5.2c0.6,0,1,0.5,1,1l-2,2l2.8,2.8
	L16.8,59L14,56.2l-2,2c-0.6,0-1-0.5-1-1V52C11,51.4,11.5,51,12,51z"/>
<path class="st1" d="M17.9,78h-5.2c-0.6,0-1-0.5-1-1l2-2L11,72.2l2.2-2.2l2.8,2.8l2-2c0.6,0,1,0.5,1,1V77C19,77.5,18.5,78,17.9,78z
	 M17.9,67.2l-2-2L13.2,68L11,65.8l2.8-2.8l-2-2c0-0.6,0.5-1,1-1h5.2c0.6,0,1,0.5,1,1v5.2C19,66.8,18.5,67.2,17.9,67.2z M8.2,77
	c0,0.6-0.5,1-1,1H2c-0.6,0-1-0.5-1-1v-5.2c0-0.6,0.5-1,1-1l2,2L6.8,70L9,72.2L6.2,75L8.2,77z M6.6,67.7l-2.7-2.7L2,67
	c-0.6,0-1-0.4-1-1v-5c0-0.6,0.4-1,1-1h5c0.6,0,1,0.4,1,1l-1.9,1.9l2.7,2.7L6.6,67.7z"/>
<g>
	<g>
		<path class="st1" d="M10,80.3c0-0.7-0.4-1.3-1-1.3c-0.2,0-0.5,0.1-0.6,0.3l0,0l-3.2,4H2v0c-0.5,0-1,0.5-1,1.1V88
			c0,0.6,0.4,1.1,1,1.1h3.2l3.2,3.7l0,0C8.6,92.9,8.8,93,9,93c0.6,0,1-0.6,1-1.3l0-2.6v-4.7L10,80.3z M12.1,83.9
			c0.5,0.5,0.9,1.3,0.9,2.1c0,0.8-0.3,1.6-0.9,2.1l0.7,0.7c0.7-0.7,1.2-1.7,1.2-2.8c0-1.1-0.4-2.1-1.2-2.8L12.1,83.9z M15.7,80.3
			l-0.7,0.7c1.3,1.3,2.1,3,2.1,4.9c0,1.9-0.8,3.7-2.1,4.9l0.7,0.7c1.4-1.4,2.3-3.4,2.3-5.7S17.1,81.8,15.7,80.3z"/>
	</g>
</g>
<path class="st1" d="M19.9,104.2l-0.7,0.7l-3.2-3.2l-3.2,3.2l-0.7-0.7l3.2-3.2l-3.2-3.2l0.7-0.7l3.2,3.2l3.2-3.2l0.7,0.7l-3.2,3.2
	L19.9,104.2z M10,103v1.1l0,2.6c0,0.7-0.4,1.3-1,1.3c-0.2,0-0.4-0.1-0.6-0.2l0,0l-3.2-3.7H2c-0.5,0-1-0.5-1-1.1v-3.6
	c0-0.6,0.4-1.1,1-1.1v0h3.2l3.2-4l0,0C8.6,94.1,8.8,94,9,94c0.6,0,1,0.6,1,1.3l0,4.1v2.5V103z"/>
</svg>
